<?xml version="1.0" encoding="iso-8859-1"?>
<!-- Generator: Adobe Illustrator 18.0.0, SVG Export Plug-In . SVG Version: 6.00 Build 0)  -->
<!DOCTYPE svg PUBLIC "-//W3C//DTD SVG 1.1//EN" "http://www.w3.org/Graphics/SVG/1.1/DTD/svg11.dtd">
<svg version="1.1" id="Capa_1" xmlns="http://www.w3.org/2000/svg" xmlns:xlink="http://www.w3.org/1999/xlink" x="0px" y="0px"
	 viewBox="0 0 490.675 490.675" style="enable-background:new 0 0 490.675 490.675;" xml:space="preserve">
<g>
	<path d="M204.966,97.798c8.927,12.994,23.887,21.537,40.81,21.537c16.943,0,31.919-8.563,40.842-21.584
		c20.418-11.052,20.176-29.79,20.066-37.854c-0.454-33.234-25.291-58.404-59.056-59.85c-17.7-0.768-28.031,7.798-31.297,11.057
		c-2.828,0.653-8.913,2.55-14.989,7.612c-7.312,6.091-16.125,18.145-16.593,40.982C184.583,67.796,184.212,86.625,204.966,97.798z
		 M245.776,110.836c-22.6,0-40.985-18.386-40.985-40.985V58.577c10.434-4.08,16.952-14.929,20.263-22.132
		c9.037,9.399,30.496,27.626,61.708,28.709v4.696C286.761,92.45,268.375,110.836,245.776,110.836z M193.247,59.874
		c0.751-36.692,24.792-40.507,25.788-40.647c1.057-0.136,2.043-0.686,2.729-1.5c0.341-0.405,8.544-9.907,25.5-9.186
		c29.114,1.246,50.53,22.893,50.92,51.474c0.087,6.382-0.283,13.257-3.868,19.444c0.615-3.109,0.944-6.32,0.944-9.608v-5.102
		c1.543-0.696,2.586-2.275,2.501-4.069c-0.111-2.344-2.109-4.123-4.447-4.043c-40.849,1.942-66.023-30.461-66.269-30.784
		l-0.01,0.007c-0.52-0.688-1.245-1.229-2.133-1.502c-2.236-0.684-4.618,0.572-5.309,2.813c-0.071,0.23-7.267,23.036-21.903,24.471
		c-2.336,0.229-4.044,2.309-3.815,4.645c0.151,1.539,1.113,2.791,2.415,3.41V69.85c0,3.331,0.336,6.585,0.966,9.733
		C193.69,73.531,193.108,66.668,193.247,59.874z"/>
	<path d="M247.134,79.872h-4.945c-9.614,0-17.436,7.821-17.436,17.435v5.11c0,2.348,1.903,4.25,4.25,4.25
		c2.347,0,4.25-1.902,4.25-4.25v-5.11c0-4.927,4.008-8.935,8.936-8.935h4.945c4.928,0,8.937,4.008,8.937,8.935v5.11
		c0,2.348,1.903,4.25,4.25,4.25c2.347,0,4.25-1.902,4.25-4.25v-5.11C264.571,87.693,256.749,79.872,247.134,79.872z"/>
	<path d="M249.255,94.969h-9.187c-2.347,0-4.25,1.902-4.25,4.25c0,2.348,1.903,4.25,4.25,4.25h9.187c2.347,0,4.25-1.902,4.25-4.25
		C253.505,96.872,251.603,94.969,249.255,94.969z"/>
	<path d="M317.201,410.836c7.791-24.917,25.975-101.145,25.975-101.145c0.625-2.188,6.716-25.398-9.254-42.773h18.425
		c6.499,0,11.786-5.287,11.786-11.786v-8.289c0-1.779-0.408-3.462-1.117-4.976c0.096,0.001,0.19,0.014,0.286,0.014
		c5.943,0,11.531-2.314,15.733-6.517c4.203-4.203,6.518-9.79,6.518-15.734c0-5.943-2.315-11.531-6.518-15.733
		c0,0-56.735-54.978-74.447-74.447c-5.08-5.584-12.08-9.53-20.201-9.53h-21.705c-2.171,0-3.994,1.637-4.226,3.796
		c-0.587,5.462-6.148,9.741-12.659,9.741c-6.511,0-12.071-4.279-12.658-9.741c-0.232-2.159-2.054-3.796-4.226-3.796H207.21
		c-7.633,0-14.358,3.428-19.307,8.507c-0.028,0.029-0.064,0.047-0.093,0.076c-18.962,19.123-76.171,76.173-76.171,76.173
		c-4.203,4.202-6.518,9.79-6.518,15.733c0,5.943,2.314,11.531,6.517,15.733c4.191,4.191,9.76,6.502,15.685,6.516
		c-0.497,1.303-0.782,2.709-0.782,4.185v8.29c0,6.498,5.287,11.785,11.786,11.785h18.788c-15.956,17.361-9.889,40.547-9.255,42.768
		c0,0,18.799,75.443,25.424,100.499c1.321,4.998,5.975,8.77,11.389,8.77h29.014c2.347,0,4.25-1.902,4.25-4.25v-51.47
		c0-1.812,1.474-3.285,3.285-3.285h48.231c1.811,0,3.286,1.474,3.286,3.285v51.47c0,2.348,1.903,4.25,4.25,4.25h29.013
		C311.066,418.954,315.772,415.409,317.201,410.836z M377.054,219.629c0,3.673-1.431,7.126-4.028,9.724
		c-2.597,2.597-6.05,4.027-9.723,4.027c-3.673,0-7.126-1.431-9.731-4.035l-39.423-39.226l19.546-19.546l39.332,39.332
		C375.623,212.503,377.054,215.956,377.054,219.629z M310.595,147.474l17.089,17.088l-17.089,17.09V147.474z M310.595,198.574
		l36.665,36.481h-36.665V198.574z M245.799,141.955c9.516,0,17.605-5.604,20.277-13.537h18.312c9.763,0,17.707,7.942,17.707,17.705
		v63.609h-18.23c-2.347,0-4.25,1.902-4.25,4.25c0,2.348,1.903,4.25,4.25,4.25h18.23v16.823H280.83
		c-6.1-13.535-19.709-22.985-35.493-22.985s-29.393,9.45-35.492,22.985h-20.342v-10.823h14.362c2.347,0,4.25-1.902,4.25-4.25
		c0-2.348-1.903-4.25-4.25-4.25h-14.362v-69.609c0-9.225,7.094-16.814,16.112-17.624v53.483c0,2.348,1.903,4.25,4.25,4.25
		s4.25-1.902,4.25-4.25v-53.564h11.407C228.195,136.351,236.283,141.955,245.799,141.955z M245.338,289.901
		c3.032,0,5.98-0.36,8.814-1.018v62.566h-17.626v-62.566C239.359,289.541,242.306,289.901,245.338,289.901z M245.338,281.401
		c-16.771,0-30.416-13.645-30.416-30.416c0-16.771,13.645-30.415,30.416-30.415c16.771,0,30.416,13.645,30.416,30.415
		C275.754,267.756,262.109,281.401,245.338,281.401z M181.004,183.173l-17.923-17.922l17.923-17.924V183.173z M181.004,198.244
		v36.811h-36.811L181.004,198.244z M113.622,220.407c0-3.673,1.431-7.126,4.028-9.724l39.421-39.422l19.448,19.447l-39.422,39.422
		c-2.597,2.597-6.05,4.027-9.723,4.027c-3.673,0-7.126-1.431-9.724-4.027C115.052,227.533,113.622,224.08,113.622,220.407z
		 M135.042,255.13v-8.29c0-1.812,1.474-3.286,3.286-3.286l68.814,0.001c-0.467,2.406-0.72,4.889-0.72,7.43s0.253,5.024,0.72,7.431
		h-30.004h-38.811C136.516,258.416,135.042,256.942,135.042,255.13z M169.969,266.916h2.919v107.072l-16.803-66.448
		c-0.02-0.077-0.041-0.154-0.065-0.23C155.942,307.058,149.085,281.49,169.969,266.916z M209.437,363.234v47.22h-24.764
		c-1.812,0-3.285-1.475-3.285-3.286v-96.26c0.733,1.277,2.094,2.147,3.672,2.147l22.33,0.001c2.347,0,4.25-1.902,4.25-4.25
		c0-2.347-1.903-4.25-4.25-4.25l-22.33-0.001c-1.578,0-2.939,0.87-3.672,2.147v-39.786h28.458
		c3.697,8.203,10.15,14.902,18.18,18.908v65.625h-6.804C214.724,351.449,209.437,356.736,209.437,363.234z M306.002,410.454h-24.763
		v-47.22c0-6.498-5.287-11.785-11.786-11.785h-6.802v-65.626c8.028-4.006,14.482-10.704,18.178-18.907l28.458,0.001v58.709
		c-0.69-0.483-1.525-0.771-2.43-0.771h-31.464c-2.347,0-4.25,1.902-4.25,4.25c0,2.348,1.903,4.25,4.25,4.25h31.464
		c0.905,0,1.741-0.287,2.43-0.77v74.583C309.288,408.979,307.814,410.454,306.002,410.454z M321.068,266.916
		c20.763,14.488,14.263,39.377,13.95,40.393c-0.023,0.071-0.043,0.145-0.062,0.218l-17.168,66.986V266.916H321.068z M355.633,255.13
		c0,1.812-1.474,3.286-3.286,3.286l-68.814-0.001c0.468-2.406,0.72-4.889,0.72-7.431c0-2.541-0.253-5.023-0.72-7.43h68.814
		c1.812,0,3.286,1.475,3.286,3.286V255.13z"/>
	<path d="M258.628,182.308l13.181,9.17c0.729,0.508,1.578,0.762,2.427,0.762c0.848,0,1.695-0.253,2.424-0.759l13.206-9.17
		c1.144-0.795,1.826-2.099,1.826-3.491v-17.191c0-2.348-1.903-4.25-4.25-4.25h-26.387c-2.347,0-4.25,1.902-4.25,4.25v17.191
		C256.805,180.212,257.486,181.514,258.628,182.308z M265.305,165.879h17.887v10.719l-8.954,6.217l-8.933-6.215V165.879z"/>
	<path d="M258.15,362.978h-25.622c-6.499,0-11.787,5.287-11.787,11.786v103.995c0,6.499,5.288,11.786,11.787,11.786h12.308
		c0.321,0.077,0.652,0.13,0.997,0.13s0.676-0.053,0.997-0.13h11.32c6.499,0,11.785-5.287,11.785-11.786V374.764
		C269.935,368.265,264.648,362.978,258.15,362.978z M261.435,478.759c0,1.812-1.474,3.286-3.285,3.286h-8.067v-35.204
		c0-2.348-1.903-4.25-4.25-4.25s-4.25,1.902-4.25,4.25v35.204h-9.055c-1.812,0-3.287-1.475-3.287-3.286V374.764
		c0-1.811,1.475-3.286,3.287-3.286h25.622c1.811,0,3.285,1.475,3.285,3.286V478.759z"/>
	<path d="M250.994,234.753c-1.66-1.66-4.351-1.66-6.011,0l-18.777,18.777c-1.66,1.659-1.66,4.351,0,6.01
		c0.83,0.83,1.918,1.245,3.005,1.245c1.088,0,2.175-0.415,3.005-1.245l18.777-18.777
		C252.654,239.103,252.654,236.412,250.994,234.753z"/>
	<path d="M267.234,241.858c-1.661-1.66-4.351-1.661-6.011,0l-17.762,17.762c-1.66,1.659-1.66,4.351,0,6.01
		c0.83,0.83,1.917,1.245,3.005,1.245c1.087,0,2.175-0.415,3.005-1.245l17.762-17.762
		C268.894,246.209,268.894,243.517,267.234,241.858z"/>
</g>
<g>
</g>
<g>
</g>
<g>
</g>
<g>
</g>
<g>
</g>
<g>
</g>
<g>
</g>
<g>
</g>
<g>
</g>
<g>
</g>
<g>
</g>
<g>
</g>
<g>
</g>
<g>
</g>
<g>
</g>
</svg>
